<svg xmlns="http://www.w3.org/2000/svg" viewBox="0 0 269 400" width="269" height="400" font-family="sans-serif">
<g stroke="#4a4f57" stroke-width="0.8" stroke-linejoin="round">
  <path d="M262.3,467.2L276.7,452.5L288.8,442.0L296.0,437.6L305.1,431.6L305.3,423.0L299.9,416.7L294.6,418.8L296.7,412.6L298.2,406.2L298.2,400.2L294.3,398.3L290.2,400.0L286.2,399.5L285.0,395.4L284.0,385.5L282.0,382.2L274.7,379.3L270.3,381.4L258.9,379.4L259.7,364.7L256.5,358.7L259.8,356.4L258.8,350.3L261.8,345.5L263.7,337.0L261.1,330.3L255.2,327.3L254.1,323.0L255.7,316.8L235.0,316.3L230.9,303.7L234.0,303.5L233.9,298.9L231.8,295.7L231.3,289.5L225.1,286.3L218.3,286.4L213.9,283.2L206.6,281.1L202.3,277.0L190.3,275.3L178.6,265.6L179.5,258.3L178.2,254.2L179.3,246.1L165.2,247.9L159.5,252.0L150.1,256.3L147.7,259.6L142.2,259.9L134.2,258.9L128.1,260.8L123.2,259.6L123.9,243.1L115.1,249.5L105.6,249.2L101.6,243.5L94.4,242.8L96.7,238.2L90.7,231.6L86.2,221.9L89.1,219.9L89.1,215.3L95.6,212.2L94.5,206.4L97.2,202.6L98.0,197.6L110.3,190.2L119.1,188.1L120.6,186.5L130.3,187.0L135.1,157.4L135.4,152.7L133.7,146.5L128.9,142.5L129.0,134.7L135.0,132.9L137.2,134.0L137.5,129.9L131.2,128.8L131.1,122.0L152.1,122.2L155.6,118.5L158.6,121.9L160.7,128.3L162.7,127.0L168.7,132.7L177.0,132.0L179.1,128.7L187.1,126.2L191.6,124.4L192.8,119.8L200.5,116.7L199.9,114.5L190.8,113.5L189.3,106.7L189.7,99.5L184.9,96.7L186.9,95.7L194.9,97.1L203.5,99.8L206.6,97.2L214.3,95.5L226.3,91.5L230.3,87.4L228.8,84.3L234.4,83.8L236.9,86.3L235.5,91.1L239.2,92.7L241.7,97.7L238.7,101.6L237.0,110.8L239.8,116.2L240.6,121.2L247.2,126.3L252.5,126.8L253.6,124.7L257.0,124.2L261.9,122.4L265.4,119.5L271.4,120.4L274.0,120.0L279.8,120.9L280.8,118.7L279.0,116.5L280.1,113.4L284.4,114.4L289.5,113.3L295.7,115.5L300.4,117.8L303.7,114.8L306.1,115.3L307.6,118.3L312.7,117.6L316.8,113.5L320.1,105.5L326.5,95.6L330.2,95.1L332.8,101.1L338.9,120.0L344.6,121.8L344.9,129.2L336.8,138.1L340.2,141.4L359.2,143.1L359.6,153.9L367.8,146.8L381.3,150.7L399.2,157.3L404.4,163.7L402.7,169.6L415.2,166.3L436.1,172.0L452.2,171.6L468.1,180.5L481.8,192.7L490.1,195.8L499.3,196.2L503.2,199.6L506.9,213.4L508.7,219.9L504.4,237.8L498.9,244.9L483.7,259.9L476.9,272.1L468.9,281.5L466.2,281.7L463.2,289.7L464.0,309.9L461.0,326.6L459.8,333.7L456.4,338.0L454.5,352.4L443.6,366.5L441.8,377.7L433.1,382.4L430.6,388.9L418.9,388.8L401.9,393.0L394.4,397.8L382.3,401.0L369.7,409.6L360.5,420.3L359.0,428.4L360.8,434.3L358.8,445.3L356.3,450.5L348.8,456.5L336.9,475.5L327.4,484.1L320.1,489.1L315.2,499.4L308.0,505.6L305.1,499.5L309.8,494.4L303.6,487.0L295.1,481.0L284.1,474.1L280.1,474.4L269.3,466.1L262.3,467.2Z" fill="#2b2f36"/>
  <path d="M44.3,62.4L40.7,59.3L38.4,53.5L41.1,50.6L38.4,49.9L36.3,46.3L31.0,43.3L26.3,44.0L24.1,47.7L19.8,50.5L17.4,50.8L16.3,53.1L21.5,58.9L18.5,60.3L17.0,61.9L12.0,62.5L10.1,56.0L8.7,57.9L5.2,57.2L3.0,52.9L-1.4,52.2L-4.2,50.9L-8.8,50.9L-9.2,53.3L-10.4,51.6L-9.8,49.5L-8.9,47.3L-9.3,45.3L-7.7,44.0L-10.0,42.4L-10.0,38.1L-5.9,37.1L-2.0,41.0L-2.2,43.3L2.1,43.8L3.1,42.9L6.0,45.6L11.3,44.8L15.9,42.0L22.4,39.9L26.1,36.6L32.1,37.3L31.7,38.3L37.7,38.7L42.4,40.6L46.0,43.8L50.0,46.8L48.7,48.4L51.2,54.8L49.2,58.0L45.7,57.2L44.3,62.4Z" fill="#2b2f36"/>
  <path d="M143.8,709.6L143.8,733.7L155.4,733.7L161.8,734.0L158.3,738.4L149.1,741.7L143.8,741.4L137.4,740.5L129.6,737.3L118.3,735.7L104.8,729.7L93.8,723.9L79.0,711.8L87.8,714.0L102.9,721.2L117.2,725.1L122.8,720.2L126.3,712.8L136.2,708.3L143.8,709.6ZM148.3,372.9L152.5,387.8L160.3,386.3L161.6,389.0L157.9,400.3L146.2,405.6L146.5,423.6L144.3,427.1L147.5,431.3L139.9,438.1L132.8,448.2L129.0,458.0L130.0,468.5L123.4,479.6L128.3,498.3L131.1,500.3L131.1,510.2L125.0,520.8L125.2,529.8L117.1,536.8L117.1,546.8L120.4,557.3L113.9,561.3L111.0,570.9L108.5,582.0L110.3,595.2L106.0,597.4L108.5,609.8L113.4,613.9L109.8,618.5L114.8,620.6L116.0,624.7L111.3,626.7L112.4,633.1L108.5,647.4L102.8,656.6L104.0,662.1L100.6,669.0L92.4,673.7L93.3,685.2L97.1,689.1L104.3,688.4L104.1,696.5L108.5,702.8L134.5,704.2L144.5,705.9L134.9,705.9L129.7,708.5L120.0,712.4L118.3,722.5L113.7,722.8L101.6,719.3L89.3,711.7L75.9,705.5L72.5,698.7L75.6,692.4L70.2,685.2L68.8,666.7L73.4,656.3L84.7,648.0L68.4,644.8L78.6,635.3L82.3,617.3L94.3,621.1L99.9,598.7L92.7,595.9L89.3,609.4L82.5,607.8L85.9,592.4L89.6,572.3L94.5,565.0L91.4,554.4L90.5,542.2L95.1,541.9L101.7,524.4L109.1,507.1L113.7,491.0L111.2,474.8L114.4,465.9L113.1,452.6L119.4,439.4L121.3,418.4L124.8,396.0L128.2,371.8L127.4,354.1L125.1,338.9L130.7,336.1L133.5,330.6L138.8,337.9L140.3,345.7L145.9,350.3L142.5,360.8L148.3,372.9Z" fill="#2b2f36"/>
  <path d="M177.6,737.3L167.3,737.8L161.8,734.0L155.4,733.7L143.8,733.7L143.8,709.6L148.0,714.6L153.3,722.7L167.3,729.2L182.4,731.9L177.6,737.3ZM183.3,379.2L189.6,387.0L193.8,378.3L206.1,378.8L207.8,381.1L227.6,398.7L236.4,400.4L249.6,408.3L260.7,412.6L262.2,417.3L251.6,433.8L262.5,436.7L274.5,438.4L283.1,436.6L292.8,428.3L294.6,418.8L299.9,416.7L305.3,423.0L305.1,431.6L296.0,437.6L288.8,442.0L276.7,452.5L262.3,467.2L259.6,475.9L256.7,487.0L256.8,497.7L254.5,500.1L253.7,507.1L252.9,512.8L266.6,522.0L265.1,529.5L271.9,534.2L271.3,539.5L261.0,553.3L245.0,559.1L223.4,561.4L211.6,560.3L213.9,566.7L211.7,574.8L213.6,580.3L207.2,584.1L196.2,585.6L185.8,581.7L181.7,584.5L183.2,595.2L190.4,598.5L196.3,595.1L199.5,600.7L189.6,604.0L181.0,610.8L179.4,621.6L176.9,627.4L166.7,627.5L158.3,633.0L155.2,641.1L165.8,649.0L176.0,651.2L172.3,660.9L159.6,667.0L152.6,679.7L142.8,683.9L138.4,689.0L141.9,700.2L149.0,706.5L144.5,705.9L134.5,704.2L108.5,702.8L104.1,696.5L104.3,688.4L97.1,689.1L93.3,685.2L92.4,673.7L100.6,669.0L104.0,662.1L102.8,656.6L108.5,647.4L112.4,633.1L111.3,626.7L116.0,624.7L114.8,620.6L109.8,618.5L113.4,613.9L108.5,609.8L106.0,597.4L110.3,595.2L108.5,582.0L111.0,570.9L113.9,561.3L120.4,557.3L117.1,546.8L117.1,536.8L125.2,529.8L125.0,520.8L131.1,510.2L131.1,500.3L128.3,498.3L123.4,479.6L130.0,468.5L129.0,458.0L132.8,448.2L139.9,438.1L147.5,431.3L144.3,427.1L146.5,423.6L146.2,405.6L157.9,400.3L161.6,389.0L160.3,386.3L169.2,376.6L183.3,379.2Z" fill="#2b2f36"/>
  <path d="M207.8,381.1L212.1,368.1L212.4,362.3L217.5,352.8L236.3,349.7L246.3,349.8L256.3,355.3L256.5,358.7L259.7,364.7L258.9,379.4L270.3,381.4L274.7,379.3L282.0,382.2L284.0,385.5L285.0,395.4L286.2,399.5L290.2,400.0L294.3,398.3L298.2,400.2L298.2,406.2L296.7,412.6L294.6,418.8L292.8,428.3L283.1,436.6L274.5,438.4L262.5,436.7L251.6,433.8L262.2,417.3L260.7,412.6L249.6,408.3L236.4,400.4L227.6,398.7L207.8,381.1Z" fill="#2b2f36"/>
  <path d="M239.3,50.1L246.4,54.1L253.1,61.1L253.4,66.7L257.4,66.9L263.2,72.2L267.4,76.0L265.7,85.7L259.2,88.5L259.8,91.1L257.8,96.6L262.6,104.5L266.0,104.5L267.4,110.6L274.0,120.0L271.4,120.4L265.4,119.5L261.9,122.4L257.0,124.2L253.6,124.7L252.5,126.8L247.2,126.3L240.6,121.2L239.8,116.2L237.0,110.8L238.7,101.6L241.7,97.7L239.2,92.7L235.5,91.1L236.9,86.3L234.4,83.8L228.8,84.3L221.6,76.1L224.5,73.1L224.3,68.2L230.9,66.4L233.6,64.4L229.9,60.4L230.8,56.4L239.3,50.1Z" fill="#2b2f36"/>
  <path d="M267.4,76.0L280.3,78.1L281.5,76.2L290.2,75.4L301.8,78.3L296.2,87.6L297.0,95.0L301.2,101.4L299.4,106.1L298.4,111.0L295.7,115.5L289.5,113.3L284.4,114.4L280.1,113.4L279.0,116.5L280.8,118.7L279.8,120.9L274.0,120.0L267.4,110.6L266.0,104.5L262.6,104.5L257.8,96.6L259.8,91.1L259.2,88.5L265.7,85.7L267.4,76.0Z" fill="#2b2f36"/>
</g>
<g stroke="#8a5a28" stroke-width="0.9" stroke-linejoin="round">
  <path d="M71.3,142.2L66.7,139.6L61.4,136.0L58.4,137.8L49.2,136.3L46.6,131.6L44.6,131.8L33.8,125.6L32.4,122.3L36.4,121.4L35.9,116.0L38.4,112.1L43.8,111.4L48.3,104.6L52.4,98.9L48.5,96.4L50.5,90.1L48.1,80.2L50.4,77.3L48.7,68.2L44.3,62.4L45.7,57.2L49.2,58.0L51.2,54.8L48.7,48.4L50.0,46.8L55.6,47.1L63.6,39.6L68.1,38.5L68.2,34.9L70.2,25.7L76.3,20.7L83.1,20.5L84.0,18.3L92.4,19.2L100.9,13.7L105.0,11.3L110.3,6.1L114.1,6.7L116.9,9.6L114.8,13.2L107.9,15.0L105.2,20.4L101.0,23.5L97.9,27.6L96.6,35.3L93.6,41.6L99.1,42.3L100.5,47.3L102.9,49.7L103.7,54.0L102.4,58.0L102.8,60.3L105.5,61.2L108.0,65.0L121.9,63.9L128.1,65.3L135.7,74.6L140.1,73.4L147.8,74.0L153.9,72.8L157.7,74.6L155.8,80.5L153.4,84.1L152.6,91.8L154.7,99.0L157.8,102.2L158.2,104.7L152.7,110.0L156.6,112.4L159.5,116.2L162.7,127.0L160.7,128.3L158.6,121.9L155.6,118.5L152.1,122.2L131.1,122.0L131.2,128.8L137.5,129.9L137.2,134.0L135.0,132.9L129.0,134.7L128.9,142.5L133.7,146.5L135.4,152.7L135.1,157.4L130.3,187.0L124.9,181.3L121.7,181.0L128.6,170.0L120.4,164.9L113.9,165.9L110.0,164.0L104.1,166.9L96.1,165.5L89.8,154.2L84.8,151.4L81.3,146.3L74.2,141.2L71.3,142.2Z" fill="#f0a868" fill-opacity="0.9"/>
  <path d="M114.8,13.2L114.5,15.8L108.2,17.0L111.7,22.0L111.6,27.6L106.8,33.9L110.9,42.5L115.5,41.8L117.9,33.9L114.6,30.1L114.1,22.0L127.5,17.6L126.0,12.5L129.7,9.1L133.6,16.7L141.2,16.8L148.1,22.9L148.6,26.4L158.2,26.5L169.7,25.4L175.9,30.3L184.1,31.6L190.2,28.2L190.3,25.5L203.6,24.8L216.5,24.7L207.4,27.9L211.0,33.0L219.6,33.8L227.8,39.1L229.5,47.8L235.1,47.5L239.3,50.1L230.8,56.4L229.9,60.4L233.6,64.4L230.9,66.4L224.3,68.2L224.5,73.1L221.6,76.1L228.8,84.3L230.3,87.4L226.3,91.5L214.3,95.5L206.6,97.2L203.5,99.8L194.9,97.1L186.9,95.7L184.9,96.7L189.7,99.5L189.3,106.7L190.8,113.5L199.9,114.5L200.5,116.7L192.8,119.8L191.6,124.4L187.1,126.2L179.1,128.7L177.0,132.0L168.7,132.7L162.7,127.0L159.5,116.2L156.6,112.4L152.7,110.0L158.2,104.7L157.8,102.2L154.7,99.0L152.6,91.8L153.4,84.1L155.8,80.5L157.7,74.6L153.9,72.8L147.8,74.0L140.1,73.4L135.7,74.6L128.1,65.3L121.9,63.9L108.0,65.0L105.5,61.2L102.8,60.3L102.4,58.0L103.7,54.0L102.9,49.7L100.5,47.3L99.1,42.3L93.6,41.6L96.6,35.3L97.9,27.6L101.0,23.5L105.2,20.4L107.9,15.0L114.8,13.2Z" fill="#f0a868" fill-opacity="0.9"/>
  <path d="M18.3,177.3L24.0,169.3L21.7,164.5L17.6,169.6L11.1,164.8L13.3,161.8L11.5,152.0L15.2,150.3L17.2,143.6L21.3,136.6L20.5,132.2L26.4,129.9L33.8,125.6L44.6,131.8L46.6,131.6L49.2,136.3L58.4,137.8L61.4,136.0L66.7,139.6L71.3,142.2L72.8,150.4L69.5,157.4L57.7,168.7L44.8,173.0L38.2,182.4L36.2,189.7L30.1,194.2L25.6,188.7L21.2,187.5L16.8,188.4L16.5,184.4L19.5,181.9L18.3,177.3Z" fill="#f0a868" fill-opacity="0.9"/>
  <path d="M133.5,330.6L130.7,336.1L125.1,338.9L114.3,332.7L113.4,328.3L92.1,317.4L72.8,305.6L64.5,298.9L60.0,290.0L61.8,286.9L52.7,272.7L42.1,252.7L31.9,231.2L27.5,226.3L24.1,218.3L15.7,211.3L8.1,206.9L11.6,202.1L6.3,191.7L9.7,184.2L18.3,177.3L19.5,181.9L16.5,184.4L16.8,188.4L21.2,187.5L25.6,188.7L30.1,194.2L36.2,189.7L38.2,182.4L44.8,173.0L57.7,168.7L69.5,157.4L72.8,150.4L71.3,142.2L74.2,141.2L81.3,146.3L84.8,151.4L89.8,154.2L96.1,165.5L104.1,166.9L110.0,164.0L113.9,165.9L120.4,164.9L128.6,170.0L121.7,181.0L124.9,181.3L130.3,187.0L120.6,186.5L119.1,188.1L110.3,190.2L98.0,197.6L97.2,202.6L94.5,206.4L95.6,212.2L89.1,215.3L89.1,219.9L86.2,221.9L90.7,231.6L96.7,238.2L94.4,242.8L101.6,243.5L105.6,249.2L115.1,249.5L123.9,243.1L123.2,259.6L128.1,260.8L134.2,258.9L143.5,276.3L141.2,280.0L140.7,287.6L140.4,296.8L136.2,302.2L138.2,306.2L135.7,309.8L140.3,318.9L133.5,330.6Z" fill="#f0a868" fill-opacity="0.9"/>
  <path d="M206.1,378.8L193.8,378.3L189.6,387.0L183.3,379.2L169.2,376.6L160.3,386.3L152.5,387.8L148.3,372.9L142.5,360.8L145.9,350.3L140.3,345.7L138.8,337.9L133.5,330.6L140.3,318.9L135.7,309.8L138.2,306.2L136.2,302.2L140.4,296.8L140.7,287.6L141.2,280.0L143.5,276.3L134.2,258.9L142.2,259.9L147.7,259.6L150.1,256.3L159.5,252.0L165.2,247.9L179.3,246.1L178.2,254.2L179.5,258.3L178.6,265.6L190.3,275.3L202.3,277.0L206.6,281.1L213.9,283.2L218.3,286.4L225.1,286.3L231.3,289.5L231.8,295.7L233.9,298.9L234.0,303.5L230.9,303.7L235.0,316.3L255.7,316.8L254.1,323.0L255.2,327.3L261.1,330.3L263.7,337.0L261.8,345.5L258.8,350.3L259.8,356.4L256.5,358.7L256.3,355.3L246.3,349.8L236.3,349.7L217.5,352.8L212.4,362.3L212.1,368.1L207.8,381.1L206.1,378.8Z" fill="#f0a868" fill-opacity="0.9"/>
</g>
  <text x="96" y="98" fill="#1b1e23" font-size="10" font-weight="600" text-anchor="middle">Colombia</text>
  <text x="170" y="63" fill="#1b1e23" font-size="10" font-weight="600" text-anchor="middle">Venezuela</text>
  <text x="39" y="156" fill="#1b1e23" font-size="10" font-weight="600" text-anchor="middle">Ecuador</text>
  <text x="82" y="240" fill="#1b1e23" font-size="10" font-weight="600" text-anchor="middle">Peru</text>
  <text x="187" y="321" fill="#1b1e23" font-size="10" font-weight="600" text-anchor="middle">Bolivia</text>
</svg>